<?xml version="1.0" encoding="UTF-8" standalone="no"?><svg xmlns:svg="http://www.w3.org/2000/svg" xmlns="http://www.w3.org/2000/svg" xmlns:xlink="http://www.w3.org/1999/xlink" version="1.0" width="150px" height="150px" viewBox="0 0 128 128" xml:space="preserve"><rect x="0" y="0" width="100%" height="100%" fill="#060606" /><g><path d="M40.73 13.1l-4.04-7A63.67 63.67 0 0 1 61.5.06v8a55.83 55.83 0 0 0-20.77 5.05z" fill="#ff6a00"/><path d="M40.73 13.1l-4.04-7A63.67 63.67 0 0 1 61.5.06v8a55.83 55.83 0 0 0-20.77 5.05z" fill="#fffbf8" transform="rotate(30 64 64)"/><path d="M40.73 13.1l-4.04-7A63.67 63.67 0 0 1 61.5.06v8a55.83 55.83 0 0 0-20.77 5.05z" fill="#fff2e8" transform="rotate(60 64 64)"/><path d="M40.73 13.1l-4.04-7A63.67 63.67 0 0 1 61.5.06v8a55.83 55.83 0 0 0-20.77 5.05z" fill="#ffe6d4" transform="rotate(90 64 64)"/><path d="M40.73 13.1l-4.04-7A63.67 63.67 0 0 1 61.5.06v8a55.83 55.83 0 0 0-20.77 5.05z" fill="#ffd9be" transform="rotate(120 64 64)"/><path d="M40.73 13.1l-4.04-7A63.67 63.67 0 0 1 61.5.06v8a55.83 55.83 0 0 0-20.77 5.05z" fill="#ffcba6" transform="rotate(150 64 64)"/><path d="M40.73 13.1l-4.04-7A63.67 63.67 0 0 1 61.5.06v8a55.83 55.83 0 0 0-20.77 5.05z" fill="#ffbd8e" transform="rotate(180 64 64)"/><path d="M40.73 13.1l-4.04-7A63.67 63.67 0 0 1 61.5.06v8a55.83 55.83 0 0 0-20.77 5.05z" fill="#ffad73" transform="rotate(210 64 64)"/><path d="M40.73 13.1l-4.04-7A63.67 63.67 0 0 1 61.5.06v8a55.83 55.83 0 0 0-20.77 5.05z" fill="#ff9f5a" transform="rotate(240 64 64)"/><path d="M40.73 13.1l-4.04-7A63.67 63.67 0 0 1 61.5.06v8a55.83 55.83 0 0 0-20.77 5.05z" fill="#ff9041" transform="rotate(270 64 64)"/><path d="M40.73 13.1l-4.04-7A63.67 63.67 0 0 1 61.5.06v8a55.83 55.83 0 0 0-20.77 5.05z" fill="#ff832a" transform="rotate(300 64 64)"/><path d="M40.73 13.1l-4.04-7A63.67 63.67 0 0 1 61.5.06v8a55.83 55.83 0 0 0-20.77 5.05z" fill="#ff7615" transform="rotate(330 64 64)"/><animateTransform attributeName="transform" type="rotate" values="0 64 64;30 64 64;60 64 64;90 64 64;120 64 64;150 64 64;180 64 64;210 64 64;240 64 64;270 64 64;300 64 64;330 64 64" calcMode="discrete" dur="1080ms" repeatCount="indefinite"></animateTransform></g></svg>