<svg width="35" height="38" viewBox="0 0 35 38" fill="none" xmlns="http://www.w3.org/2000/svg">
<g id="user-01">
<path id="Icon" d="M29.1668 33.3637C29.1668 31.2069 29.1668 30.1285 28.9156 29.251C28.3501 27.2753 26.8912 25.7292 25.0268 25.1298C24.1988 24.8636 23.1812 24.8636 21.146 24.8636H13.8543C11.8191 24.8636 10.8015 24.8636 9.9735 25.1298C8.10916 25.7292 6.65022 27.2753 6.08468 29.251C5.8335 30.1285 5.8335 31.2069 5.8335 33.3637M24.0627 12.5C24.0627 16.3409 21.1245 19.4546 17.5002 19.4546C13.8758 19.4546 10.9377 16.3409 10.9377 12.5C10.9377 8.65913 13.8758 5.54547 17.5002 5.54547C21.1245 5.54547 24.0627 8.65913 24.0627 12.5Z" stroke="#FF6B01" stroke-width="2" stroke-linecap="round" stroke-linejoin="round"/>
</g>
</svg>
